{"title":"Formula 1 2011 Race 16 Korean Race HD 1080 H264 AC3","uid":6749058,"size":4573160301,"categoryP":"video","categoryS":"hd___tv_shows","magnet":"?xt=urn:btih:baec66a756d188da5d720715924d802eba7e3827&amp;dn=Formula+1+2011+Race+16+Korean+Race+HD+1080+H264+AC3&amp;tr=udp%3A%2F%2Ftracker.openbittorrent.com%3A80&amp;tr=udp%3A%2F%2Fopen.demonii.com%3A1337&amp;tr=udp%3A%2F%2Ftracker.coppersurfer.tk%3A6969&amp;tr=udp%3A%2F%2Fexodus.desync.com%3A6969","seeders":0,"leechers":1,"uploader":"jorrell0733","files":4,"time":1318818538,"description":"Formula One 2011 Season\nSingapore Race &amp; Build Up In High Definition\n\nRace 16: Korean Grand Prix, Korea\n\nRecord Source: BBC One HD\nOriginal Format: MPEG TS Stream\nDate: Sunday 16th October 2011\nTime: 06:00 to 09:15\n\n\nJake Humphrey, Martin Brundle &amp; David Coulthard present the BBC F1 coverage for the\n16th Race meeting of the 2011 Formula One Season, the Korean Grand Prix\n\n\nThe Race has been split into 2 seperate files. One is the Race only,\nand the other is the 1 hr pre race build up.\nYou can download both or just download which you want.!\n\nKorean Race Build Up:\n\nComplete Name: : F1 2011 Race 16 Korean Race Build Up 1080 H264 AC3 DD.mkv\nFormat : Matroska\nFormat version : Version 2\nFile size : 1.22 GiB\nDuration : 55mn 13s\nOverall bit rate : 3 158 Kbps\nWriting application : HandBrake 0.9.5\nWriting library : libmkv 0.6.4.1\n\nVideo\nID : 1\nFormat : AVC\nFormat/Info : Advanced Video Codec\nFormat profile : &lt;a class=&quot;__cf_email__&quot; href=&quot;/cdn-cgi/l/email-protection&quot; data-cfemail=&quot;4f022e26210f037b617f&quot;&gt;[email&amp;#160;protected]&lt;/a&gt;&lt;script cf-hash='f9e31' type=&quot;text/javascript&quot;&gt;\n/* &lt;![CDATA[ */!function(){try{var t=&quot;currentScript&quot;in document?document.currentScript:function(){for(var t=document.getElementsByTagName(&quot;script&quot;),e=t.length;e--;)if(t[e].getAttribute(&quot;cf-hash&quot;))return t[e]}();if(t&amp;&amp;t.previousSibling){var e,r,n,i,c=t.previousSibling,a=c.getAttribute(&quot;data-cfemail&quot;);if(a){for(e=&quot;&quot;,r=parseInt(a.substr(0,2),16),n=2;a.length-n;n+=2)i=parseInt(a.substr(n,2),16)^r,e+=String.fromCharCode(i);e=document.createTextNode(e),c.parentNode.replaceChild(e,c)}}}catch(u){}}();/* ]]&gt; */&lt;/script&gt;\nFormat settings, CABAC : Yes\nFormat settings, ReFrames : 4 frames\nCodec ID : V_MPEG4/ISO/AVC\nDuration : 55mn 13s\nBit rate : 3 000 Kbps\nWidth : 1 440 pixels\nHeight : 1 080 pixels\nDisplay aspect ratio : 16:9\nFrame rate mode : Variable\nFrame rate : 25.000 fps\nColor space : YUV\nChroma subsampling : 4:2:0\nBit depth : 8 bits\nScan type : Progressive\nBits/(Pixel*Frame) : 0.077\nStream size : 1.14 GiB (94%)\nWriting library : x264 core 112\nEncoding settings : cabac=1 / ref=2 / deblock=1:0:0 / analyse=0x1:0x111 / me=hex / subme=6 / psy=1 / psy_rd=1.00:0.00 / mixed_ref=0 / me_range=16 / chroma_me=1 / trellis=0 / 8x8dct=0 / cqm=0 / deadzone=21,11 / fast_pskip=1 / chroma_qp_offset=-2 / threads=3 / sliced_threads=0 / nr=0 / decimate=1 / interlaced=0 / constrained_intra=0 / bframes=2 / b_pyramid=2 / b_adapt=1 / b_bias=0 / direct=1 / weightb=0 / open_gop=0 / weightp=2 / keyint=250 / keyint_min=25 / scenecut=40 / intra_refresh=0 / rc_lookahead=40 / rc=abr / mbtree=1 / bitrate=3000 / ratetol=1.0 / qcomp=0.60 / qpmin=3 / qpmax=51 / qpstep=4 / ip_ratio=1.40 / aq=1:1.00\nLanguage : English\nColor primaries : BT.709-5, BT.1361, IEC 61966-2-4, SMPTE RP177\nTransfer characteristics : BT.709-5, BT.1361\nMatrix coefficients : BT.709-5, BT.1361, IEC 61966-2-4 709, SMPTE RP177\n\nAudio\nID : 2\nFormat : AC-3\nFormat/Info : Audio Coding 3\nMode extension : CM (complete main)\nCodec ID : A_AC3\nDuration : 55mn 13s\nBit rate mode : Constant\nBit rate : 128 Kbps\nChannel(s) : 2 channels\nChannel positions : Front: L R\nSampling rate : 48.0 KHz\nBit depth : 16 bits\nCompression mode : Lossy\nStream size : 50.6 MiB (4%)\nLanguage : English\n\n\n\n\nKorea Race:\n\nComplete Name: : F1 2011 Race 16 Korean Race 1080 H264 AC3 DD.mkv\nFormat : Matroska\nFormat version : Version 2\nFile size : 3.04 GiB\nDuration : 2h 19mn\nOverall bit rate : 3 131 Kbps\nWriting application : HandBrake 0.9.5\nWriting library : libmkv 0.6.4.1\n\nVideo\nID : 1\nFormat : AVC\nFormat/Info : Advanced Video Codec\nFormat profile : &lt;a class=&quot;__cf_email__&quot; href=&quot;/cdn-cgi/l/email-protection&quot; data-cfemail=&quot;0c416d65624c4038223c&quot;&gt;[email&amp;#160;protected]&lt;/a&gt;&lt;script cf-hash='f9e31' type=&quot;text/javascript&quot;&gt;\n/* &lt;![CDATA[ */!function(){try{var t=&quot;currentScript&quot;in document?document.currentScript:function(){for(var t=document.getElementsByTagName(&quot;script&quot;),e=t.length;e--;)if(t[e].getAttribute(&quot;cf-hash&quot;))return t[e]}();if(t&amp;&amp;t.previousSibling){var e,r,n,i,c=t.previousSibling,a=c.getAttribute(&quot;data-cfemail&quot;);if(a){for(e=&quot;&quot;,r=parseInt(a.substr(0,2),16),n=2;a.length-n;n+=2)i=parseInt(a.substr(n,2),16)^r,e+=String.fromCharCode(i);e=document.createTextNode(e),c.parentNode.replaceChild(e,c)}}}catch(u){}}();/* ]]&gt; */&lt;/script&gt;\nFormat settings, CABAC : Yes\nFormat settings, ReFrames : 4 frames\nCodec ID : V_MPEG4/ISO/AVC\nDuration : 2h 19mn\nBit rate : 3 000 Kbps\nWidth : 1 438 pixels\nHeight : 1 078 pixels\nDisplay aspect ratio : 16:9\nOriginal display aspect ratio : 16:9\nFrame rate mode : Variable\nFrame rate : 25.000 fps\nColor space : YUV\nChroma subsampling : 4:2:0\nBit depth : 8 bits\nScan type : Progressive\nBits/(Pixel*Frame) : 0.077\nStream size : 2.86 GiB (94%)\nWriting library : x264 core 112\nEncoding settings : cabac=1 / ref=2 / deblock=1:0:0 / analyse=0x1:0x111 / me=hex / subme=6 / psy=1 / psy_rd=1.00:0.00 / mixed_ref=0 / me_range=16 / chroma_me=1 / trellis=0 / 8x8dct=0 / cqm=0 / deadzone=21,11 / fast_pskip=1 / chroma_qp_offset=-2 / threads=3 / sliced_threads=0 / nr=0 / decimate=1 / interlaced=0 / constrained_intra=0 / bframes=2 / b_pyramid=2 / b_adapt=1 / b_bias=0 / direct=1 / weightb=0 / open_gop=0 / weightp=2 / keyint=250 / keyint_min=25 / scenecut=40 / intra_refresh=0 / rc_lookahead=40 / rc=abr / mbtree=1 / bitrate=3000 / ratetol=1.0 / qcomp=0.60 / qpmin=3 / qpmax=51 / qpstep=4 / ip_ratio=1.40 / aq=1:1.00\nLanguage : English\nColor primaries : BT.709-5, BT.1361, IEC 61966-2-4, SMPTE RP177\nTransfer characteristics : BT.709-5, BT.1361\nMatrix coefficients : BT.709-5, BT.1361, IEC 61966-2-4 709, SMPTE RP177\n\nAudio\nID : 2\nFormat : AC-3\nFormat/Info : Audio Coding 3\nMode extension : CM (complete main)\nCodec ID : A_AC3\nDuration : 2h 19mn\nBit rate mode : Constant\nBit rate : 128 Kbps\nChannel(s) : 2 channels\nChannel positions : Front: L R\nSampling rate : 48.0 KHz\nBit depth : 16 bits\nCompression mode : Lossy\nStream size : 127 MiB (4%)\nLanguage : English\n\n\n\n\n\n\nEnjoy, TheBlackKnight","torrent":{"xt":"urn:btih:baec66a756d188da5d720715924d802eba7e3827","amp;dn":"Formula+1+2011+Race+16+Korean+Race+HD+1080+H264+AC3","amp;tr":["udp%3A%2F%2Ftracker.openbittorrent.com%3A80","udp%3A%2F%2Fopen.demonii.com%3A1337","udp%3A%2F%2Ftracker.coppersurfer.tk%3A6969","udp%3A%2F%2Fexodus.desync.com%3A6969"],"infoHash":"baec66a756d188da5d720715924d802eba7e3827","infoHashBuffer":{"type":"Buffer","data":[186,236,102,167,86,209,136,218,93,114,7,21,146,77,128,46,186,126,56,39]},"announce":[],"urlList":[]}}